<svg width="200" height="200" viewBox="0 0 200 200" xmlns="http://www.w3.org/2000/svg">
<defs xmlns="http://www.w3.org/2000/svg">
    <linearGradient id="bs-logo-a" x1="76.079" x2="523.48" y1="10.798" y2="365.945" gradientUnits="userSpaceOnUse"><stop stop-color="#9013fe"></stop><stop offset="1" stop-color="#6610f2"></stop></linearGradient>
    <linearGradient id="bs-logo-b" x1="193.508" x2="293.514" y1="109.74" y2="278.872" gradientUnits="userSpaceOnUse"><stop stop-color="#fff"></stop><stop offset="1" stop-color="#f1e5fc"></stop></linearGradient>
    <filter xmlns="http://www.w3.org/2000/svg" id="bs-logo-c" width="197" height="249" x="161.901" y="83.457" color-interpolation-filters="sRGB" filterUnits="userSpaceOnUse">
        <feFlood flood-opacity="0" result="BackgroundImageFix"></feFlood>
        <feColorMatrix in="SourceAlpha" values="0 0 0 0 0 0 0 0 0 0 0 0 0 0 0 0 0 0 127 0"></feColorMatrix>
        <feOffset dy="4"></feOffset>
        <feGaussianBlur stdDeviation="8"></feGaussianBlur>
        <feColorMatrix values="0 0 0 0 0 0 0 0 0 0 0 0 0 0 0 0 0 0 0.15 0"></feColorMatrix>
        <feBlend in2="BackgroundImageFix" result="effect1_dropShadow"></feBlend>
        <feBlend in="SourceGraphic" in2="effect1_dropShadow" result="shape"></feBlend>
    </filter>
</defs>
<rect x="0" y="0" rx="30" ry="30" width="200" height="200" fill="url(#bs-logo-a)"></rect>
<g stroke-linecap="round" fill-rule="evenodd" font-size="9pt" stroke="#ffffff" stroke-width="0.0mm" fill="#ffffff" style="stroke: rgb(255, 255, 255); stroke-width: 0.25mm; fill: rgb(255, 255, 255); cursor: pointer;" transform="translate(30,60)">
    <path d="M 132.4 15.501 L 122.1 23.101 A 19.806 19.806 0 0 0 117.63 17.221 A 18.619 18.619 0 0 0 114.55 15.001 Q 109.7 12.201 104 12.201 A 18.48 18.48 0 0 0 98.438 13.019 A 16.72 16.72 0 0 0 95.8 14.101 Q 92.1 16.001 89.4 19.301 A 23.814 23.814 0 0 0 85.436 26.367 A 27.08 27.08 0 0 0 85.25 26.901 Q 83.8 31.201 83.8 36.001 Q 83.8 41.101 85.35 45.401 A 23.134 23.134 0 0 0 88.727 51.662 A 21.564 21.564 0 0 0 89.75 52.901 Q 92.6 56.101 96.4 57.951 A 18.515 18.515 0 0 0 103.382 59.756 A 21.994 21.994 0 0 0 104.8 59.801 A 20.711 20.711 0 0 0 115.073 57.044 A 24.313 24.313 0 0 0 115.15 57.001 A 28.509 28.509 0 0 0 120.513 53.028 A 38.519 38.519 0 0 0 124.4 48.801 L 124.4 62.401 A 31.884 31.884 0 0 1 116.515 68.705 A 26.192 26.192 0 0 1 103.6 72.001 Q 96.7 72.001 90.55 69.201 Q 84.4 66.401 79.75 61.451 Q 75.1 56.501 72.5 49.901 A 37.871 37.871 0 0 1 69.963 37.98 A 44.152 44.152 0 0 1 69.9 35.601 Q 69.9 28.301 72.5 21.851 Q 75.1 15.401 79.8 10.501 Q 84.5 5.601 90.8 2.801 Q 97.1 0.001 104.5 0.001 Q 114.5 0.001 121.65 4.251 A 28.364 28.364 0 0 1 130.022 11.684 A 27.137 27.137 0 0 1 132.4 15.501 Z M 0 71.501 L 26.2 0.501 L 40.2 0.501 L 66.3 71.501 L 52.1 71.501 L 45.5 53.801 L 20.7 53.801 L 14.2 71.501 L 0 71.501 Z M 123.4 71.501 L 123.4 45.101 L 109.1 45.101 L 109.1 35.001 L 134.8 35.001 L 134.8 71.501 L 123.4 71.501 Z M 23 44.101 L 43 44.101 L 33.2 14.801 L 23 44.101 Z" vector-effect="non-scaling-stroke"></path>
</g>
</svg>